<?xml version="1.0" standalone="no"?>
<!DOCTYPE svg PUBLIC "-//W3C//DTD SVG 20010904//EN"
 "http://www.w3.org/TR/2001/REC-SVG-20010904/DTD/svg10.dtd">
<svg version="1.0" xmlns="http://www.w3.org/2000/svg"
 width="2133.000000pt" height="2133.000000pt" viewBox="0 0 2133.000000 2133.000000"
 preserveAspectRatio="xMidYMid meet">
<metadata>
Created by potrace 1.11, written by Peter Selinger 2001-2013
</metadata>
<g transform="translate(0.000000,2133.000000) scale(0.100000,-0.100000)"
fill="#000000" stroke="none">
<path d="M9969 21326 c-2 -2 -49 -7 -104 -11 -55 -3 -111 -8 -125 -10 -14 -2
-55 -6 -92 -10 -37 -3 -75 -7 -85 -9 -10 -2 -43 -7 -74 -10 -31 -4 -66 -8 -77
-11 -11 -2 -37 -6 -58 -10 -22 -3 -61 -11 -89 -16 -70 -13 -144 -26 -205 -34
-35 -5 -111 -17 -135 -21 -10 -2 -35 -6 -55 -9 -31 -5 -314 -58 -380 -71 -14
-3 -86 -19 -160 -35 -74 -17 -142 -32 -150 -34 -253 -55 -708 -189 -1085 -318
-175 -61 -573 -213 -617 -237 -9 -5 -62 -27 -118 -50 -178 -70 -316 -136 -560
-268 -338 -184 -375 -203 -412 -220 -35 -16 -38 -20 -38 -62 0 -25 -1 -1547
-1 -3382 l0 -3338 -2528 0 -2528 0 -18 -102 c-9 -57 -42 -233 -71 -393 -30
-159 -57 -302 -59 -318 -3 -15 -12 -60 -21 -100 -8 -39 -17 -83 -19 -97 -2
-14 -6 -36 -9 -49 -3 -13 -8 -47 -11 -75 -2 -28 -7 -62 -9 -76 -4 -24 -11 -85
-21 -185 -3 -27 -7 -63 -10 -80 -2 -16 -7 -68 -10 -115 -3 -47 -8 -103 -10
-125 -20 -229 -28 -1080 -12 -1310 4 -60 10 -139 12 -175 3 -36 7 -90 10 -120
2 -30 7 -84 10 -120 3 -36 8 -78 10 -95 2 -16 7 -57 10 -90 4 -33 8 -70 10
-81 2 -12 6 -48 10 -80 4 -33 8 -66 11 -74 3 -13 302 -15 2620 -15 1439 0
2621 -3 2626 -6 6 -4 8 -11 5 -15 -3 -5 -1167 -9 -2627 -9 l-2622 0 6 -70 c4
-38 8 -81 10 -95 2 -14 7 -52 11 -85 4 -33 9 -69 11 -80 2 -11 7 -40 10 -65 3
-25 7 -52 9 -60 2 -8 7 -29 9 -46 3 -17 13 -66 21 -110 9 -43 18 -90 21 -104
3 -14 23 -93 44 -177 22 -83 40 -154 40 -157 0 -3 -7 -6 -16 -6 -9 0 -14 -6
-11 -12 2 -7 23 -83 47 -168 71 -262 172 -586 247 -790 19 -52 36 -99 37 -105
2 -5 8 -23 14 -38 7 -16 12 -30 12 -33 0 -16 191 -480 275 -669 68 -152 255
-533 328 -665 16 -30 43 -80 60 -110 16 -30 37 -68 47 -85 10 -16 29 -50 42
-75 121 -219 447 -726 611 -950 76 -103 205 -276 224 -300 7 -8 53 -67 103
-130 51 -63 110 -137 133 -165 92 -109 232 -271 246 -286 9 -9 47 -51 86 -95
75 -85 547 -560 655 -659 95 -87 157 -143 229 -205 36 -30 69 -60 75 -65 6 -6
36 -30 66 -55 30 -25 57 -47 60 -51 4 -4 225 -181 290 -232 40 -32 313 -234
346 -257 234 -163 754 -495 808 -516 11 -4 13 545 12 3356 -1 3154 0 3360 16
3360 16 0 17 -203 17 -3302 0 -1817 1 -3331 1 -3364 l0 -62 53 -27 c28 -15 79
-42 112 -60 246 -136 653 -339 793 -396 57 -24 84 -40 88 -54 5 -22 15 -26
329 -155 347 -143 688 -262 1025 -359 156 -44 412 -111 480 -125 14 -3 34 -7
45 -10 38 -8 320 -64 355 -70 19 -3 46 -8 60 -11 29 -6 215 -34 275 -41 22 -3
51 -7 65 -10 14 -2 56 -6 95 -10 38 -3 75 -7 80 -8 6 0 12 -10 15 -20 6 -22 7
-22 127 -30 48 -4 99 -8 113 -11 22 -3 92 -10 215 -20 49 -4 166 -14 220 -20
22 -2 72 -7 110 -10 39 -3 86 -8 105 -11 19 -2 63 -7 98 -9 l62 -5 0 52 c1 29
1 1874 1 4101 0 3788 1 4047 17 4047 16 0 17 -261 16 -4085 l-2 -4084 417 5
c229 2 450 6 491 8 150 9 340 22 430 31 25 2 74 7 110 10 36 4 76 8 90 10 14
2 54 7 90 10 36 4 72 8 80 10 8 2 44 6 80 10 36 3 72 8 80 10 8 2 35 7 60 10
92 13 353 56 359 59 3 2 29 7 56 10 28 4 57 9 65 11 8 2 29 7 45 10 64 11 222
45 334 72 36 8 72 16 82 18 9 2 97 24 196 50 1018 265 2003 686 2890 1236 349
217 766 509 1027 722 60 48 120 96 131 105 11 7 340 291 384 330 177 158 541
519 711 707 35 39 82 90 104 115 23 25 66 74 96 110 30 36 57 67 60 70 11 10
157 187 215 260 32 41 74 93 91 116 234 295 550 760 755 1109 45 77 90 152
100 167 11 15 19 30 19 33 0 3 20 40 43 83 201 357 425 829 578 1217 22 55 44
109 49 120 5 11 21 54 36 95 15 41 42 118 61 170 119 329 337 1072 315 1068
-18 -2 -33 3 -29 10 3 4 8 23 11 42 3 19 8 48 11 65 4 16 15 77 25 135 10 58
26 141 34 185 8 44 17 96 21 115 3 19 8 43 11 53 3 11 7 29 9 40 1 12 8 49 14
82 6 33 13 72 16 88 6 30 8 45 26 132 6 33 12 69 13 80 1 20 -10 20 -5456 20
-3001 0 -5459 3 -5463 7 -4 4 -5 10 -2 15 3 4 2469 8 5481 8 4861 0 5477 2
5481 15 2 8 7 40 10 70 3 30 8 66 10 80 2 14 6 50 10 80 3 30 8 71 11 90 2 19
6 62 9 95 4 56 10 122 20 240 28 310 28 1210 0 1490 -7 69 -17 188 -20 230 -3
42 -9 97 -26 230 -16 127 -21 169 -22 184 0 8 -9 16 -19 19 -10 2 -19 12 -19
21 -1 9 -3 25 -4 36 -1 11 -6 49 -9 85 -4 36 -9 76 -11 90 -2 14 -7 45 -10 70
-14 110 -60 356 -90 480 -9 37 -37 148 -45 175 -4 17 -29 109 -53 205 -78 300
-182 663 -217 755 -5 11 -18 49 -30 85 -12 36 -25 74 -30 85 -4 11 -31 85 -60
165 -71 195 -181 468 -274 677 -80 180 -286 598 -353 718 -22 39 -53 95 -70
125 -114 208 -298 508 -458 745 -107 159 -329 471 -345 485 -3 3 -32 40 -64
83 -92 124 -397 491 -501 603 -5 6 -50 56 -100 110 -111 123 -479 491 -600
601 -118 107 -120 109 -281 248 -76 66 -141 122 -144 125 -3 3 -70 57 -150
120 -80 63 -150 119 -157 125 -24 20 -40 32 -168 126 -499 367 -1016 685
-1545 949 -141 71 -369 180 -375 180 -2 0 -36 15 -77 34 -123 57 -289 126
-304 126 -8 0 -14 5 -14 10 0 6 -6 10 -12 10 -7 0 -65 21 -128 46 -227 89
-605 219 -850 290 -232 67 -629 169 -780 199 -40 8 -279 55 -305 59 -141 26
-187 34 -335 56 -167 25 -197 29 -253 35 -26 3 -60 7 -75 9 -15 2 -56 7 -92
11 -36 4 -76 8 -90 10 -14 2 -61 6 -105 10 -44 3 -96 8 -115 10 -31 3 -98 8
-285 22 -77 5 -1261 14 -1266 9z"/>
<path d="M5255 19886 c-339 -206 -563 -352 -757 -491 -31 -22 -66 -47 -78 -55
-20 -14 -249 -186 -316 -237 -136 -104 -380 -308 -560 -468 -88 -77 -277 -258
-429 -410 -183 -184 -215 -216 -391 -411 -66 -72 -261 -300 -343 -399 -408
-499 -796 -1077 -1121 -1670 -62 -113 -287 -564 -333 -665 -8 -19 -32 -71 -52
-115 -99 -218 -260 -626 -354 -900 -22 -66 -46 -133 -52 -150 -5 -16 -12 -37
-14 -45 -2 -8 -20 -67 -40 -130 -20 -63 -43 -137 -50 -165 -8 -27 -34 -124
-59 -214 -25 -91 -46 -166 -46 -168 0 -2 1138 -3 2529 -3 l2529 0 -1 3360 c0
1849 -3 3362 -6 3364 -3 2 -28 -11 -56 -28z"/>
</g>
</svg>
